<svg width="13" height="13" viewBox="0 0 13 13" fill="none" xmlns="http://www.w3.org/2000/svg">
<rect width="13" height="13" fill="#535353"/>
<path d="M-4219 -1078C-4219 -1079.1 -4218.1 -1080 -4217 -1080H13045C13046.1 -1080 13047 -1079.1 13047 -1078V5083C13047 5084.1 13046.1 5085 13045 5085H-4217C-4218.1 5085 -4219 5084.1 -4219 5083V-1078Z" fill="#404040"/>
<path d="M-4217 -1079H13045V-1081H-4217V-1079ZM13046 -1078V5083H13048V-1078H13046ZM13045 5084H-4217V5086H13045V5084ZM-4218 5083V-1078H-4220V5083H-4218ZM-4217 5084C-4217.55 5084 -4218 5083.55 -4218 5083H-4220C-4220 5084.66 -4218.66 5086 -4217 5086V5084ZM13046 5083C13046 5083.55 13045.6 5084 13045 5084V5086C13046.7 5086 13048 5084.66 13048 5083H13046ZM13045 -1079C13045.6 -1079 13046 -1078.55 13046 -1078H13048C13048 -1079.66 13046.7 -1081 13045 -1081V-1079ZM-4217 -1081C-4218.66 -1081 -4220 -1079.66 -4220 -1078H-4218C-4218 -1078.55 -4217.55 -1079 -4217 -1079V-1081Z" fill="white" fill-opacity="0.1"/>
<rect x="0.5" y="0.5" width="12" height="12" fill="white"/>
<path d="M12 1C12.0001 9 4.99986 12 0.999856 12" stroke="#939292" stroke-linecap="square"/>
</svg>
