<svg width="16" height="16" viewBox="0 0 16 16" fill="none" xmlns="http://www.w3.org/2000/svg">
<path fill-rule="evenodd" clip-rule="evenodd" d="M5.75849 1.52389C5.60103 1.52389 5.47339 1.66247 5.47339 1.83343V3.59318C5.47339 4.01399 5.15919 4.35512 4.77161 4.35512C4.38402 4.35512 4.06982 4.01399 4.06982 3.59318V1.83343C4.06982 0.820854 4.82586 0 5.75849 0H14.3115C15.2441 0 16.0001 0.820854 16.0001 1.83343V11.1196C16.0001 12.1322 15.2441 12.953 14.3115 12.953H12.6724C12.2848 12.953 11.9706 12.6119 11.9706 12.1911C11.9706 11.7703 12.2848 11.4292 12.6724 11.4292H14.3115C14.4689 11.4292 14.5966 11.2906 14.5966 11.1196V1.83343C14.5966 1.66247 14.4689 1.52389 14.3115 1.52389H5.75849Z" fill="#939292"/>
<path fill-rule="evenodd" clip-rule="evenodd" d="M0 4.8803C0 3.86773 0.75604 3.04688 1.68866 3.04688H10.2416C11.1743 3.04688 11.9303 3.86773 11.9303 4.8803V14.1665C11.9303 15.1791 11.1743 15.9999 10.2416 15.9999H1.68866C0.75604 15.9999 0 15.1791 0 14.1665V4.8803ZM1.68866 4.57076C1.53121 4.57076 1.40356 4.70935 1.40356 4.8803V14.1665C1.40356 14.3375 1.53121 14.476 1.68866 14.476H10.2416C10.3991 14.476 10.5267 14.3375 10.5267 14.1665V4.8803C10.5267 4.70935 10.3991 4.57076 10.2416 4.57076H1.68866Z" fill="#939292"/>
</svg>
