<svg width="17" height="16" viewBox="0 0 17 16" fill="none" xmlns="http://www.w3.org/2000/svg">
<path fill-rule="evenodd" clip-rule="evenodd" d="M6.70368 1.52389C6.54622 1.52389 6.41858 1.66247 6.41858 1.83343V3.59318C6.41858 4.01399 6.10438 4.35512 5.7168 4.35512C5.32921 4.35512 5.01501 4.01399 5.01501 3.59318V1.83343C5.01501 0.820854 5.77105 0 6.70368 0H15.2566C16.1893 0 16.9453 0.820854 16.9453 1.83343V11.1196C16.9453 12.1322 16.1893 12.953 15.2566 12.953H13.6176C13.23 12.953 12.9158 12.6119 12.9158 12.1911C12.9158 11.7703 13.23 11.4292 13.6176 11.4292H15.2566C15.4141 11.4292 15.5417 11.2906 15.5417 11.1196V1.83343C15.5417 1.66247 15.4141 1.52389 15.2566 1.52389H6.70368Z" fill="#939292"/>
<path fill-rule="evenodd" clip-rule="evenodd" d="M0.945312 4.8803C0.945312 3.86773 1.70135 3.04688 2.63398 3.04688H11.1869C12.1196 3.04688 12.8756 3.86773 12.8756 4.8803V14.1665C12.8756 15.1791 12.1196 15.9999 11.1869 15.9999H2.63398C1.70135 15.9999 0.945312 15.1791 0.945312 14.1665V4.8803ZM2.63398 4.57076C2.47652 4.57076 2.34888 4.70935 2.34888 4.8803V14.1665C2.34888 14.3375 2.47652 14.476 2.63398 14.476H11.1869C11.3444 14.476 11.472 14.3375 11.472 14.1665V4.8803C11.472 4.70935 11.3444 4.57076 11.1869 4.57076H2.63398Z" fill="#939292"/>
</svg>
