<svg width="17" height="16" viewBox="0 0 17 16" fill="none" xmlns="http://www.w3.org/2000/svg">
<g clip-path="url(#clip0_87_9403)">
<path d="M12.75 8.47133L14.9453 10.6667H1.61198C1.24331 10.6667 0.945313 10.9647 0.945313 11.3333C0.945313 11.702 1.24331 12 1.61198 12H14.9453L12.75 14.1953C12.4893 14.456 12.4893 14.8773 12.75 15.138C13.0106 15.3987 13.432 15.3987 13.6926 15.138L16.5546 12.276C16.8146 12.016 16.9446 11.6747 16.9446 11.3333C16.9446 10.992 16.8146 10.6507 16.5546 10.3907L13.6926 7.52866C13.432 7.268 13.0106 7.268 12.75 7.52866C12.4893 7.78933 12.4893 8.21066 12.75 8.47133ZM5.14065 0.861996C4.87998 0.601329 4.45865 0.601329 4.19798 0.861996L1.33598 3.724C1.07598 3.984 0.945313 4.32533 0.945313 4.66666C0.945313 5.008 1.07531 5.34933 1.33531 5.60933L4.19731 8.47133C4.45798 8.732 4.87931 8.732 5.13998 8.47133C5.40065 8.21066 5.40065 7.78933 5.13998 7.52866L2.94465 5.33333L16.2786 5.33333C16.6473 5.33333 16.9453 5.03533 16.9453 4.66666C16.9453 4.298 16.6473 4 16.2786 4L2.94531 4L5.14065 1.80466C5.40131 1.544 5.40131 1.12266 5.14065 0.861996Z" fill="#939292"/>
</g>
<defs>
<clipPath id="clip0_87_9403">
<rect width="16" height="16" fill="white" transform="matrix(0 -1 1 0 0.945312 16)"/>
</clipPath>
</defs>
</svg>
