<svg width="17" height="16" viewBox="0 0 17 16" fill="none" xmlns="http://www.w3.org/2000/svg">
<g clip-path="url(#clip0_87_9371)">
<path d="M8.94539 4.00008C11.4721 4.00008 13.7254 5.42008 14.8254 7.66675C13.7254 9.91341 11.4721 11.3334 8.94539 11.3334C6.41873 11.3334 4.16539 9.91341 3.06539 7.66675C4.16539 5.42008 6.41873 4.00008 8.94539 4.00008ZM8.94539 2.66675C5.61206 2.66675 2.76539 4.74008 1.61206 7.66675C2.76539 10.5934 5.61206 12.6667 8.94539 12.6667C12.2787 12.6667 15.1254 10.5934 16.2787 7.66675C15.1254 4.74008 12.2787 2.66675 8.94539 2.66675ZM8.94539 6.00008C9.86539 6.00008 10.6121 6.74675 10.6121 7.66675C10.6121 8.58675 9.86539 9.33342 8.94539 9.33342C8.02539 9.33342 7.27873 8.58675 7.27873 7.66675C7.27873 6.74675 8.02539 6.00008 8.94539 6.00008ZM8.94539 4.66675C7.29206 4.66675 5.94539 6.01341 5.94539 7.66675C5.94539 9.32008 7.29206 10.6667 8.94539 10.6667C10.5987 10.6667 11.9454 9.32008 11.9454 7.66675C11.9454 6.01341 10.5987 4.66675 8.94539 4.66675Z" fill="#939292"/>
</g>
<defs>
<clipPath id="clip0_87_9371">
<rect width="16" height="16" fill="white" transform="translate(0.945312)"/>
</clipPath>
</defs>
</svg>
